<?xml version="1.0" encoding="utf-8" standalone="no"?>
<!DOCTYPE svg PUBLIC "-//W3C//DTD SVG 1.1//EN"
  "http://www.w3.org/Graphics/SVG/1.1/DTD/svg11.dtd">
<svg xmlns:xlink="http://www.w3.org/1999/xlink" width="460.8pt" height="16.128pt" viewBox="0 0 460.8 16.128" xmlns="http://www.w3.org/2000/svg" version="1.1">
 <metadata>
  <rdf:RDF xmlns:dc="http://purl.org/dc/elements/1.1/" xmlns:cc="http://creativecommons.org/ns#" xmlns:rdf="http://www.w3.org/1999/02/22-rdf-syntax-ns#">
   <cc:Work>
    <dc:type rdf:resource="http://purl.org/dc/dcmitype/StillImage"/>
    <dc:date>2022-09-24T22:29:58.060665</dc:date>
    <dc:format>image/svg+xml</dc:format>
    <dc:creator>
     <cc:Agent>
      <dc:title>Matplotlib v3.5.2, https://matplotlib.org/</dc:title>
     </cc:Agent>
    </dc:creator>
   </cc:Work>
  </rdf:RDF>
 </metadata>
 <defs>
  <style type="text/css">*{stroke-linejoin: round; stroke-linecap: butt}</style>
 </defs>
 <g id="figure_1">
  <g id="patch_1">
   <path d="M 0 16.128 
L 460.8 16.128 
L 460.8 -0 
L 0 -0 
z
" style="fill: #ffffff"/>
  </g>
  <g id="axes_1">
   <g id="patch_2">
    <path d="M 0 16.128 
L 45.6192 16.128 
L 45.6192 -0 
L 0 -0 
z
" clip-path="url(#p6f8ec191c9)" style="fill: #808080"/>
   </g>
   <g id="patch_3">
    <path d="M 45.6192 16.128 
L 46.08 16.128 
L 46.08 -0 
L 45.6192 -0 
z
" clip-path="url(#p6f8ec191c9)" style="fill: #ff0000"/>
   </g>
   <g id="patch_4">
    <path d="M 46.08 16.128 
L 114.7392 16.128 
L 114.7392 -0 
L 46.08 -0 
z
" clip-path="url(#p6f8ec191c9)" style="fill: #808080"/>
   </g>
   <g id="patch_5">
    <path d="M 114.7392 16.128 
L 115.2 16.128 
L 115.2 -0 
L 114.7392 -0 
z
" clip-path="url(#p6f8ec191c9)" style="fill: #ff0000"/>
   </g>
   <g id="patch_6">
    <path d="M 115.2 16.128 
L 137.7792 16.128 
L 137.7792 -0 
L 115.2 -0 
z
" clip-path="url(#p6f8ec191c9)" style="fill: #808080"/>
   </g>
   <g id="patch_7">
    <path d="M 137.7792 16.128 
L 138.24 16.128 
L 138.24 -0 
L 137.7792 -0 
z
" clip-path="url(#p6f8ec191c9)" style="fill: #ff0000"/>
   </g>
   <g id="patch_8">
    <path d="M 138.24 16.128 
L 229.9392 16.128 
L 229.9392 -0 
L 138.24 -0 
z
" clip-path="url(#p6f8ec191c9)" style="fill: #808080"/>
   </g>
   <g id="patch_9">
    <path d="M 229.9392 16.128 
L 230.4 16.128 
L 230.4 -0 
L 229.9392 -0 
z
" clip-path="url(#p6f8ec191c9)" style="fill: #ff0000"/>
   </g>
   <g id="patch_10">
    <path d="M 230.4 16.128 
L 345.1392 16.128 
L 345.1392 -0 
L 230.4 -0 
z
" clip-path="url(#p6f8ec191c9)" style="fill: #808080"/>
   </g>
   <g id="patch_11">
    <path d="M 345.1392 16.128 
L 345.6 16.128 
L 345.6 -0 
L 345.1392 -0 
z
" clip-path="url(#p6f8ec191c9)" style="fill: #ff0000"/>
   </g>
   <g id="patch_12">
    <path d="M 345.6 16.128 
L 405.0432 16.128 
L 405.0432 -0 
L 345.6 -0 
z
" clip-path="url(#p6f8ec191c9)" style="fill: #808080"/>
   </g>
   <g id="patch_13">
    <path d="M 405.0432 16.128 
L 405.504 16.128 
L 405.504 -0 
L 405.0432 -0 
z
" clip-path="url(#p6f8ec191c9)" style="fill: #ff0000"/>
   </g>
   <g id="patch_14">
    <path d="M 405.504 16.128 
L 460.3392 16.128 
L 460.3392 -0 
L 405.504 -0 
z
" clip-path="url(#p6f8ec191c9)" style="fill: #808080"/>
   </g>
   <g id="patch_15">
    <path d="M 460.3392 16.128 
L 460.8 16.128 
L 460.8 -0 
L 460.3392 -0 
z
" clip-path="url(#p6f8ec191c9)" style="fill: #ff0000"/>
   </g>
   <g id="text_1">
    <!-- 开篇 -->
    <g transform="translate(16.8096 9.699)scale(0.06 -0.06)">
     <defs>
      <path id="SourceHanSerifCN-Regular-5f00" d="M 5325 5190 
L 5024 4819 
L 499 4819 
L 557 4627 
L 1952 4627 
L 1952 2778 
L 1952 2656 
L 250 2656 
L 301 2470 
L 1946 2470 
C 1901 1325 1587 371 256 -397 
L 326 -486 
C 1971 192 2330 1293 2381 2470 
L 3981 2470 
L 3981 -486 
L 4051 -486 
C 4275 -486 4416 -378 4416 -339 
L 4416 2470 
L 6048 2470 
C 6138 2470 6195 2502 6214 2573 
C 6010 2778 5670 3053 5670 3053 
L 5376 2656 
L 4416 2656 
L 4416 4627 
L 5702 4627 
C 5792 4627 5856 4659 5869 4730 
C 5658 4928 5325 5190 5325 5190 
z
M 2387 2790 
L 2387 4627 
L 3981 4627 
L 3981 2656 
L 2387 2656 
L 2387 2790 
z
" transform="scale(0.015625)"/>
      <path id="SourceHanSerifCN-Regular-7bc7" d="M 2707 4205 
L 2650 4147 
C 2880 3994 3155 3725 3258 3507 
C 3674 3283 3923 4077 2707 4205 
z
M 4397 5152 
L 3782 5389 
C 3635 4915 3418 4461 3194 4173 
L 3283 4109 
C 3456 4218 3629 4371 3789 4544 
L 4282 4544 
C 4442 4378 4582 4134 4608 3923 
C 4928 3661 5261 4230 4595 4544 
L 5971 4544 
C 6054 4544 6125 4576 6138 4646 
C 5933 4845 5600 5101 5600 5101 
L 5306 4736 
L 3949 4736 
C 4019 4832 4090 4934 4154 5043 
C 4288 5030 4365 5088 4397 5152 
z
M 1837 5152 
L 1229 5395 
C 998 4730 621 4109 269 3731 
L 358 3654 
C 678 3866 992 4173 1267 4544 
L 1702 4544 
C 1856 4378 1984 4134 1997 3930 
C 2317 3661 2656 4218 1978 4544 
L 3130 4544 
C 3213 4544 3270 4576 3290 4646 
C 3104 4832 2810 5069 2810 5069 
L 2547 4736 
L 1402 4736 
C 1466 4838 1530 4947 1587 5056 
C 1728 5037 1805 5088 1837 5152 
z
M 1018 3514 
L 1018 2477 
C 1018 1549 947 525 326 -339 
L 410 -410 
C 1331 403 1427 1574 1434 2413 
L 5011 2413 
L 5011 2208 
L 5075 2208 
C 5216 2208 5421 2304 5427 2342 
L 5427 3200 
C 5542 3219 5638 3270 5677 3315 
L 5178 3693 
L 4947 3450 
L 1510 3450 
L 1018 3667 
L 1018 3514 
z
M 1434 2605 
L 1434 3264 
L 5011 3264 
L 5011 2605 
L 1434 2605 
z
M 4397 1696 
L 5165 1696 
L 5165 966 
L 4397 966 
L 4397 1696 
z
M 2080 -358 
L 2080 774 
L 2906 774 
L 2906 -288 
L 2963 -288 
C 3168 -288 3290 -192 3290 -166 
L 3290 774 
L 4013 774 
L 4013 -288 
L 4070 -288 
C 4275 -288 4397 -192 4397 -166 
L 4397 774 
L 5165 774 
L 5165 96 
C 5165 19 5139 -13 5050 -13 
C 4947 -13 4550 19 4550 19 
L 4550 -77 
C 4749 -102 4858 -154 4922 -205 
C 4986 -262 5005 -365 5018 -467 
C 5504 -422 5568 -243 5568 64 
L 5568 1619 
C 5696 1638 5805 1696 5843 1741 
L 5312 2138 
L 5101 1882 
L 2112 1882 
L 1690 2086 
L 1690 -486 
L 1754 -486 
C 1914 -486 2080 -397 2080 -358 
z
M 4013 1696 
L 4013 966 
L 3290 966 
L 3290 1696 
L 4013 1696 
z
M 2906 1696 
L 2906 966 
L 2080 966 
L 2080 1696 
L 2906 1696 
z
" transform="scale(0.015625)"/>
     </defs>
     <use xlink:href="#SourceHanSerifCN-Regular-5f00"/>
     <use xlink:href="#SourceHanSerifCN-Regular-7bc7" x="99.999985"/>
    </g>
   </g>
   <g id="text_2">
    <!-- 种草 -->
    <g transform="translate(74.4096 9.699)scale(0.06 -0.06)">
     <defs>
      <path id="SourceHanSerifCN-Regular-79cd" d="M 2298 5357 
C 1862 5050 973 4614 237 4384 
L 275 4282 
C 646 4346 1037 4435 1402 4544 
L 1402 3437 
L 275 3437 
L 326 3245 
L 1254 3245 
C 1043 2349 678 1440 154 755 
L 237 672 
C 736 1146 1120 1702 1402 2330 
L 1402 -493 
L 1459 -493 
C 1664 -493 1811 -390 1811 -352 
L 1811 2483 
C 2061 2221 2336 1830 2419 1530 
C 2822 1235 3149 2061 1811 2605 
L 1811 3245 
L 2746 3245 
C 2778 3245 2803 3251 2822 3258 
L 2822 1197 
L 2886 1197 
C 3053 1197 3219 1293 3219 1331 
L 3219 1690 
L 4147 1690 
L 4147 -461 
L 4224 -461 
C 4371 -461 4544 -365 4544 -301 
L 4544 1690 
L 5536 1690 
L 5536 1274 
L 5600 1274 
C 5728 1274 5933 1376 5939 1414 
L 5939 3712 
C 6067 3738 6163 3789 6208 3840 
L 5702 4230 
L 5472 3981 
L 4544 3981 
L 4544 4966 
C 4742 4992 4806 5069 4826 5178 
L 4147 5254 
L 4147 3981 
L 3258 3981 
L 2822 4179 
L 2822 3430 
C 2637 3603 2406 3789 2406 3789 
L 2131 3437 
L 1811 3437 
L 1811 4666 
C 2080 4755 2323 4845 2522 4928 
C 2682 4877 2790 4883 2842 4941 
L 2298 5357 
z
M 4147 1875 
L 3219 1875 
L 3219 3789 
L 4147 3789 
L 4147 1875 
z
M 4544 1875 
L 4544 3789 
L 5536 3789 
L 5536 1875 
L 4544 1875 
z
" transform="scale(0.015625)"/>
      <path id="SourceHanSerifCN-Regular-8349" d="M 275 4646 
L 314 4461 
L 2067 4461 
L 2067 3846 
L 2138 3846 
C 2304 3846 2483 3910 2483 3955 
L 2483 4461 
L 3878 4461 
L 3878 3859 
L 3955 3859 
C 4154 3866 4294 3942 4294 3987 
L 4294 4461 
L 5952 4461 
C 6042 4461 6106 4493 6118 4563 
C 5914 4749 5568 5030 5568 5030 
L 5267 4646 
L 4294 4646 
L 4294 5133 
C 4461 5152 4512 5216 4525 5306 
L 3878 5363 
L 3878 4646 
L 2483 4646 
L 2483 5133 
C 2643 5152 2694 5216 2707 5306 
L 2067 5363 
L 2067 4646 
L 275 4646 
z
M 4736 2579 
L 4736 1837 
L 1645 1837 
L 1645 2579 
L 4736 2579 
z
M 4736 2765 
L 1645 2765 
L 1645 3475 
L 4736 3475 
L 4736 2765 
z
M 262 934 
L 320 742 
L 2976 742 
L 2976 -499 
L 3046 -499 
C 3258 -499 3392 -397 3392 -365 
L 3392 742 
L 5990 742 
C 6080 742 6144 774 6157 845 
C 5939 1050 5581 1325 5581 1325 
L 5267 934 
L 3392 934 
L 3392 1651 
L 4736 1651 
L 4736 1389 
L 4800 1389 
C 4934 1389 5146 1491 5152 1530 
L 5152 3411 
C 5261 3430 5350 3488 5389 3533 
L 4896 3904 
L 4678 3661 
L 1683 3661 
L 1235 3866 
L 1235 1318 
L 1299 1318 
C 1472 1318 1645 1414 1645 1459 
L 1645 1651 
L 2976 1651 
L 2976 934 
L 262 934 
z
" transform="scale(0.015625)"/>
     </defs>
     <use xlink:href="#SourceHanSerifCN-Regular-79cd"/>
     <use xlink:href="#SourceHanSerifCN-Regular-8349" x="99.999985"/>
    </g>
   </g>
   <g id="text_3">
    <!-- 发酵 -->
    <g transform="translate(120.4896 9.699)scale(0.06 -0.06)">
     <defs>
      <path id="SourceHanSerifCN-Regular-53d1" d="M 3994 5178 
L 3930 5126 
C 4218 4864 4595 4416 4704 4064 
C 5171 3750 5498 4704 3994 5178 
z
M 5510 4038 
L 5197 3654 
L 2829 3654 
C 2957 4134 3053 4634 3123 5126 
C 3264 5133 3347 5184 3373 5286 
L 2688 5414 
C 2624 4826 2528 4230 2387 3654 
L 1261 3654 
C 1389 3974 1549 4410 1638 4685 
C 1786 4659 1862 4710 1894 4787 
L 1254 5018 
C 1171 4717 979 4134 826 3750 
C 723 3718 614 3674 544 3629 
L 1024 3245 
L 1242 3462 
L 2336 3462 
C 1958 2042 1293 736 192 -128 
L 275 -192 
C 1235 403 1882 1254 2330 2234 
C 2496 1728 2778 1210 3328 730 
C 2733 230 1958 -147 992 -403 
L 1043 -512 
C 2118 -307 2944 45 3584 525 
C 4083 160 4762 -179 5696 -467 
C 5747 -237 5914 -166 6144 -141 
L 6157 -70 
C 5178 166 4442 454 3891 774 
C 4397 1235 4762 1792 5030 2438 
C 5184 2451 5254 2458 5306 2515 
L 4845 2957 
L 4550 2694 
L 2522 2694 
C 2618 2944 2701 3200 2778 3462 
L 5907 3462 
C 5990 3462 6054 3494 6074 3565 
C 5862 3770 5510 4038 5510 4038 
z
M 2445 2502 
L 4557 2502 
C 4339 1914 4019 1402 3584 966 
C 2925 1414 2586 1914 2413 2413 
L 2445 2502 
z
" transform="scale(0.015625)"/>
      <path id="SourceHanSerifCN-Regular-9175" d="M 4768 1805 
L 4640 1818 
C 4954 1971 5306 2170 5504 2336 
C 5638 2336 5715 2349 5773 2387 
L 5325 2822 
L 5062 2573 
L 4192 2573 
C 4403 2778 4602 2989 4794 3206 
L 5971 3206 
C 6054 3206 6112 3238 6125 3309 
C 5939 3488 5638 3718 5638 3718 
L 5376 3398 
L 4954 3398 
C 5338 3859 5651 4320 5888 4730 
C 6048 4698 6112 4717 6157 4794 
L 5581 5062 
C 5338 4550 4973 3968 4544 3398 
L 4262 3398 
L 4262 4288 
L 5050 4288 
C 5133 4288 5197 4320 5210 4390 
C 5043 4557 4768 4768 4768 4768 
L 4538 4474 
L 4262 4474 
L 4262 5114 
C 4416 5133 4474 5190 4486 5280 
L 3878 5344 
L 3878 4474 
L 3098 4474 
L 3149 4288 
L 3878 4288 
L 3878 3398 
L 2822 3398 
L 2874 3206 
L 4397 3206 
C 4224 2989 4045 2778 3859 2573 
L 3040 2573 
L 3098 2381 
L 3680 2381 
C 3411 2099 3130 1837 2842 1606 
L 2906 1530 
C 3290 1779 3654 2067 3987 2381 
L 4979 2381 
C 4813 2202 4582 1997 4403 1850 
L 4154 1875 
L 4154 1274 
L 2842 1274 
L 2893 1088 
L 4154 1088 
L 4154 102 
C 4154 6 4122 -26 4006 -26 
C 3878 -26 3206 19 3206 19 
L 3206 -77 
C 3494 -115 3661 -160 3757 -224 
C 3846 -288 3878 -390 3898 -506 
C 4474 -448 4544 -250 4544 77 
L 4544 1088 
L 5965 1088 
C 6048 1088 6112 1120 6131 1190 
C 5939 1370 5638 1606 5638 1606 
L 5376 1274 
L 4544 1274 
L 4544 1651 
C 4691 1670 4749 1715 4768 1805 
z
M 1440 3840 
L 1440 4730 
L 1715 4730 
L 1715 3840 
L 1440 3840 
z
M 2579 5286 
L 2285 4922 
L 230 4922 
L 282 4730 
L 1107 4730 
L 1107 3840 
L 806 3840 
L 416 4038 
L 416 -448 
L 474 -448 
C 646 -448 774 -352 774 -307 
L 774 96 
L 2349 96 
L 2349 -365 
L 2406 -365 
C 2534 -365 2707 -269 2714 -218 
L 2714 3584 
C 2842 3610 2950 3654 2989 3706 
L 2509 4083 
L 2285 3840 
L 2048 3840 
L 2048 4730 
L 2944 4730 
C 3034 4730 3085 4762 3104 4832 
C 2906 5030 2579 5286 2579 5286 
z
M 1440 3386 
L 1440 3654 
L 1715 3654 
L 1715 2304 
C 1715 2118 1754 2029 1971 2029 
L 2086 2029 
C 2202 2029 2285 2035 2349 2048 
L 2349 1338 
L 774 1338 
L 774 3654 
L 1146 3654 
L 1146 3386 
C 1146 2938 1139 2355 826 1856 
L 909 1766 
C 1408 2246 1440 2925 1440 3386 
z
M 2016 3654 
L 2349 3654 
L 2349 2342 
L 2291 2342 
C 2266 2336 2227 2330 2202 2330 
C 2189 2330 2176 2330 2157 2330 
C 2144 2330 2125 2330 2112 2330 
L 2061 2330 
C 2029 2330 2016 2349 2016 2406 
L 2016 3654 
z
M 774 288 
L 774 1146 
L 2349 1146 
L 2349 288 
L 774 288 
z
" transform="scale(0.015625)"/>
     </defs>
     <use xlink:href="#SourceHanSerifCN-Regular-53d1"/>
     <use xlink:href="#SourceHanSerifCN-Regular-9175" x="99.999985"/>
    </g>
   </g>
   <g id="text_4">
    <!-- 冲突 -->
    <g transform="translate(178.0896 9.699)scale(0.06 -0.06)">
     <defs>
      <path id="SourceHanSerifCN-Regular-51b2" d="M 595 1658 
C 525 1658 301 1658 301 1658 
L 301 1510 
C 442 1498 531 1485 614 1427 
C 762 1338 794 870 710 218 
C 723 26 794 -90 909 -90 
C 1114 -90 1229 64 1242 333 
C 1261 838 1101 1126 1088 1395 
C 1088 1549 1139 1741 1197 1926 
C 1299 2208 1907 3635 2202 4384 
L 2086 4422 
C 877 1997 877 1997 755 1779 
C 691 1658 666 1658 595 1658 
z
M 499 5062 
L 435 5011 
C 736 4768 1094 4346 1190 3994 
C 1658 3686 1978 4666 499 5062 
z
M 3846 5344 
L 3846 4109 
L 2758 4109 
L 2285 4307 
L 2285 1286 
L 2349 1286 
C 2554 1286 2682 1382 2682 1414 
L 2682 1901 
L 3846 1901 
L 3846 -499 
L 3930 -499 
C 4083 -499 4262 -397 4262 -333 
L 4262 1901 
L 5459 1901 
L 5459 1370 
L 5523 1370 
C 5715 1370 5862 1466 5862 1491 
L 5862 3891 
C 5997 3917 6061 3949 6106 4000 
L 5645 4358 
L 5434 4109 
L 4262 4109 
L 4262 5094 
C 4429 5120 4474 5184 4493 5274 
L 3846 5344 
z
M 2682 2093 
L 2682 3923 
L 3846 3923 
L 3846 2093 
L 2682 2093 
z
M 5459 2093 
L 4262 2093 
L 4262 3923 
L 5459 3923 
L 5459 2093 
z
" transform="scale(0.015625)"/>
      <path id="SourceHanSerifCN-Regular-7a81" d="M 3891 3130 
L 3834 3066 
C 4109 2906 4448 2579 4538 2298 
C 4973 2042 5235 2925 3891 3130 
z
M 2784 3763 
C 2957 3750 3034 3782 3066 3846 
L 2534 4173 
C 2176 3667 1350 2989 550 2650 
L 608 2560 
C 1510 2816 2304 3309 2784 3763 
z
M 3603 4058 
L 3546 3974 
C 4173 3706 5056 3149 5421 2733 
C 5971 2579 5939 3629 3603 4058 
z
M 5472 2534 
L 5158 2131 
L 3309 2131 
C 3366 2426 3392 2733 3418 3059 
C 3565 3078 3635 3142 3648 3232 
L 2957 3302 
C 2938 2880 2912 2490 2842 2131 
L 493 2131 
L 550 1946 
L 2803 1946 
C 2566 998 1971 256 339 -384 
L 403 -506 
C 2387 102 3021 909 3270 1933 
C 3686 698 4576 -26 5824 -429 
C 5888 -211 6022 -70 6214 -38 
L 6227 32 
C 4947 294 3885 909 3398 1946 
L 5888 1946 
C 5978 1946 6042 1978 6054 2048 
C 5830 2259 5472 2534 5472 2534 
z
M 1094 4858 
L 979 4851 
C 1030 4435 832 4051 595 3904 
C 461 3827 371 3706 435 3565 
C 499 3418 723 3430 877 3539 
C 1050 3661 1210 3923 1197 4320 
L 5389 4320 
C 5318 4102 5216 3827 5133 3654 
L 5216 3603 
C 5440 3770 5741 4038 5901 4243 
C 6029 4250 6099 4262 6144 4301 
L 5645 4781 
L 5370 4506 
L 3450 4506 
C 3667 4646 3661 5152 2816 5370 
L 2752 5325 
C 2938 5139 3117 4806 3130 4538 
L 3181 4506 
L 1184 4506 
C 1165 4614 1139 4730 1094 4858 
z
" transform="scale(0.015625)"/>
     </defs>
     <use xlink:href="#SourceHanSerifCN-Regular-51b2"/>
     <use xlink:href="#SourceHanSerifCN-Regular-7a81" x="99.999985"/>
    </g>
   </g>
   <g id="text_5">
    <!-- 藁草 -->
    <g transform="translate(281.7696 9.699)scale(0.06 -0.06)">
     <defs>
      <path id="SourceHanSerifCN-Regular-85c1" d="M 1997 4813 
L 294 4813 
L 339 4627 
L 1997 4627 
L 1997 4218 
L 2054 4218 
C 2221 4218 2374 4262 2374 4307 
L 2374 4627 
L 3981 4627 
L 3981 4230 
L 4051 4230 
C 4243 4237 4365 4301 4365 4333 
L 4365 4627 
L 5933 4627 
C 6022 4627 6080 4659 6093 4730 
C 5894 4915 5574 5171 5574 5171 
L 5280 4813 
L 4365 4813 
L 4365 5152 
C 4525 5171 4582 5235 4589 5325 
L 3981 5389 
L 3981 4813 
L 2374 4813 
L 2374 5152 
C 2534 5171 2592 5242 2605 5325 
L 1997 5389 
L 1997 4813 
z
M 5376 4358 
L 5101 4026 
L 3315 4026 
C 3533 4102 3558 4518 2848 4570 
L 2784 4518 
C 2925 4422 3059 4230 3091 4064 
C 3117 4045 3142 4032 3168 4026 
L 717 4026 
L 768 3840 
L 5728 3840 
C 5811 3840 5875 3872 5888 3942 
C 5696 4122 5376 4358 5376 4358 
z
M 4032 2022 
L 4032 1690 
L 2483 1690 
L 2483 2022 
L 4032 2022 
z
M 2483 1402 
L 2483 1510 
L 4032 1510 
L 4032 1357 
L 4096 1357 
C 4211 1357 4397 1440 4397 1485 
L 4397 1978 
C 4499 1997 4582 2042 4614 2080 
L 4186 2413 
L 3981 2202 
L 2515 2202 
L 2118 2381 
L 2118 1286 
L 2176 1286 
C 2323 1286 2483 1370 2483 1402 
z
M 4320 3411 
L 4320 3110 
L 2234 3110 
L 2234 3411 
L 4320 3411 
z
M 2234 2861 
L 2234 2931 
L 4320 2931 
L 4320 2778 
L 4378 2778 
C 4493 2778 4685 2861 4691 2899 
L 4691 3366 
C 4774 3386 4851 3430 4883 3469 
L 4467 3789 
L 4269 3590 
L 2266 3590 
L 1862 3770 
L 1862 2746 
L 1920 2746 
C 2067 2746 2234 2829 2234 2861 
z
M 1382 1210 
L 1382 2445 
L 5190 2445 
L 5190 1626 
C 5190 1562 5171 1530 5088 1530 
C 4992 1530 4659 1555 4659 1555 
L 4659 1453 
C 4838 1434 4928 1389 4992 1344 
C 5043 1293 5062 1197 5069 1114 
C 5530 1152 5581 1312 5581 1600 
L 5581 2362 
C 5715 2381 5818 2432 5862 2483 
L 5331 2874 
L 5126 2624 
L 1421 2624 
L 992 2822 
L 992 1088 
L 1050 1088 
C 1216 1088 1382 1171 1382 1210 
z
M 5613 1210 
L 5344 890 
L 3379 890 
L 3379 1088 
C 3539 1107 3603 1165 3622 1261 
L 2970 1325 
L 2970 883 
L 294 890 
L 352 704 
L 2490 704 
C 1907 288 1088 -51 218 -269 
L 262 -384 
C 1293 -205 2278 115 2970 589 
L 2970 -493 
L 3046 -493 
C 3206 -493 3379 -410 3379 -365 
L 3379 704 
L 3411 704 
C 3974 192 4928 -154 5869 -320 
C 5907 -134 6042 -13 6202 19 
L 6202 90 
C 5325 160 4314 371 3680 704 
L 5939 704 
C 6029 704 6086 736 6099 806 
C 5914 979 5613 1210 5613 1210 
z
" transform="scale(0.015625)"/>
     </defs>
     <use xlink:href="#SourceHanSerifCN-Regular-85c1"/>
     <use xlink:href="#SourceHanSerifCN-Regular-8349" x="99.999985"/>
    </g>
   </g>
   <g id="text_6">
    <!-- 结局 -->
    <g transform="translate(369.3216 9.699)scale(0.06 -0.06)">
     <defs>
      <path id="SourceHanSerifCN-Regular-7ed3" d="M 262 442 
L 544 -128 
C 608 -102 659 -51 678 32 
C 1536 403 2176 730 2624 979 
L 2598 1069 
C 1658 787 698 531 262 442 
z
M 2029 5037 
L 1414 5325 
C 1235 4845 755 3942 371 3565 
C 326 3539 205 3507 205 3507 
L 429 2938 
C 467 2950 506 2976 544 3027 
C 909 3123 1274 3232 1555 3315 
C 1210 2803 762 2253 390 1952 
C 339 1914 205 1882 205 1882 
L 435 1312 
C 474 1325 518 1350 550 1402 
C 1350 1638 2080 1907 2483 2042 
L 2464 2144 
C 1779 2035 1107 1939 646 1875 
C 1286 2394 1997 3155 2368 3686 
C 2490 3654 2579 3699 2611 3750 
L 2035 4115 
C 1952 3949 1837 3738 1690 3520 
C 1274 3494 870 3482 576 3475 
C 1024 3891 1517 4499 1792 4941 
C 1926 4922 2003 4979 2029 5037 
z
M 3302 166 
L 3302 1683 
L 5248 1683 
L 5248 166 
L 3302 166 
z
M 2906 2074 
L 2906 -506 
L 2970 -506 
C 3174 -506 3302 -416 3302 -378 
L 3302 -26 
L 5248 -26 
L 5248 -467 
L 5312 -467 
C 5504 -467 5664 -371 5664 -346 
L 5664 1651 
C 5792 1670 5856 1709 5901 1760 
L 5440 2118 
L 5229 1869 
L 3379 1869 
L 2906 2074 
z
M 5690 4499 
L 5395 4128 
L 4506 4128 
L 4506 5107 
C 4666 5133 4730 5190 4742 5286 
L 4096 5350 
L 4096 4128 
L 2451 4128 
L 2502 3942 
L 4096 3942 
L 4096 2778 
L 2733 2778 
L 2784 2586 
L 5869 2586 
C 5958 2586 6016 2618 6035 2688 
C 5830 2880 5491 3142 5491 3142 
L 5203 2778 
L 4506 2778 
L 4506 3942 
L 6074 3942 
C 6150 3942 6214 3974 6234 4045 
C 6029 4237 5690 4499 5690 4499 
z
" transform="scale(0.015625)"/>
      <path id="SourceHanSerifCN-Regular-5c40" d="M 1101 4915 
L 1101 3168 
C 1101 1907 1011 608 256 -435 
L 352 -499 
C 1280 365 1485 1568 1530 2637 
L 5306 2637 
C 5267 1203 5203 256 5030 90 
C 4973 32 4922 19 4806 19 
C 4672 19 4211 58 3949 83 
L 3942 -26 
C 4186 -64 4454 -128 4550 -192 
C 4640 -262 4659 -378 4659 -506 
C 4928 -506 5171 -429 5331 -262 
C 5587 6 5683 979 5722 2586 
C 5850 2598 5926 2630 5971 2682 
L 5485 3085 
L 5242 2822 
L 1530 2822 
L 1536 3174 
L 1536 3610 
L 4774 3610 
L 4774 3258 
L 4832 3258 
C 4973 3258 5184 3347 5190 3386 
L 5190 4653 
C 5318 4678 5421 4730 5459 4781 
L 4941 5178 
L 4710 4915 
L 1613 4915 
L 1101 5133 
L 1101 4915 
z
M 1536 3795 
L 1536 4736 
L 4774 4736 
L 4774 3795 
L 1536 3795 
z
M 2035 1965 
L 2035 51 
L 2099 51 
C 2266 51 2438 147 2438 186 
L 2438 576 
L 3834 576 
L 3834 294 
L 3898 294 
C 4026 294 4230 390 4237 435 
L 4237 1734 
C 4333 1747 4422 1792 4454 1837 
L 3994 2182 
L 3782 1965 
L 2470 1965 
L 2035 2157 
L 2035 1965 
z
M 2438 762 
L 2438 1773 
L 3834 1773 
L 3834 762 
L 2438 762 
z
" transform="scale(0.015625)"/>
     </defs>
     <use xlink:href="#SourceHanSerifCN-Regular-7ed3"/>
     <use xlink:href="#SourceHanSerifCN-Regular-5c40" x="99.999985"/>
    </g>
   </g>
   <g id="text_7">
    <!-- 致谢 -->
    <g transform="translate(426.9216 9.699)scale(0.06 -0.06)">
     <defs>
      <path id="SourceHanSerifCN-Regular-81f4" d="M 2829 5152 
L 2534 4781 
L 326 4781 
L 378 4589 
L 1363 4589 
C 1190 4186 800 3494 480 3206 
C 435 3174 333 3155 333 3155 
L 550 2592 
C 608 2611 659 2656 704 2739 
C 1472 2886 2170 3053 2662 3174 
C 2701 3059 2726 2950 2733 2842 
C 3136 2490 3520 3437 2246 4032 
L 2170 3981 
C 2330 3808 2496 3571 2605 3322 
C 1894 3251 1210 3194 755 3162 
C 1126 3494 1523 3955 1760 4301 
C 1882 4282 1958 4339 1990 4390 
L 1536 4589 
L 3206 4589 
C 3296 4589 3360 4621 3373 4691 
C 3168 4890 2829 5152 2829 5152 
z
M 4538 5203 
L 3846 5363 
C 3686 4243 3328 3142 2912 2400 
L 3008 2342 
C 3238 2598 3450 2906 3635 3251 
C 3763 2509 3955 1824 4256 1222 
C 3859 589 3302 45 2541 -410 
L 2598 -493 
C 3398 -128 3994 333 4442 883 
C 4768 333 5210 -134 5798 -499 
C 5862 -307 6003 -211 6202 -179 
L 6221 -122 
C 5555 198 5050 646 4666 1190 
C 5146 1907 5414 2765 5562 3744 
L 6010 3744 
C 6099 3744 6163 3776 6176 3846 
C 5971 4045 5626 4314 5626 4314 
L 5325 3930 
L 3942 3930 
C 4083 4282 4205 4666 4301 5056 
C 4442 5062 4512 5120 4538 5203 
z
M 3866 3744 
L 5075 3744 
C 4979 2931 4781 2195 4442 1542 
C 4109 2106 3891 2758 3738 3462 
L 3866 3744 
z
M 2675 2234 
L 2387 1862 
L 1933 1862 
L 1933 2515 
C 2093 2534 2150 2592 2163 2682 
L 1517 2746 
L 1517 1862 
L 435 1862 
L 486 1677 
L 1517 1677 
L 1517 486 
C 979 390 544 314 282 282 
L 538 -294 
C 602 -282 659 -218 691 -141 
C 1875 218 2746 518 3373 742 
L 3360 851 
L 1933 570 
L 1933 1677 
L 3059 1677 
C 3149 1677 3206 1709 3226 1779 
C 3014 1971 2675 2234 2675 2234 
z
" transform="scale(0.015625)"/>
      <path id="SourceHanSerifCN-Regular-8c22" d="M 4288 2861 
L 4198 2829 
C 4346 2470 4506 1926 4512 1517 
C 4890 1133 5306 1984 4288 2861 
z
M 691 5338 
L 614 5293 
C 832 5030 1101 4602 1171 4282 
C 1568 3968 1926 4800 691 5338 
z
M 1395 3398 
C 1517 3424 1600 3469 1632 3514 
L 1210 3866 
L 998 3642 
L 230 3642 
L 288 3450 
L 992 3450 
L 992 621 
C 992 499 960 461 762 358 
L 1043 -160 
C 1101 -122 1184 -38 1216 83 
C 1619 538 1984 992 2150 1203 
L 2093 1280 
L 1395 736 
L 1395 3398 
z
M 2163 4800 
L 2163 1965 
L 1600 1965 
L 1658 1779 
L 3142 1779 
C 2778 992 2170 243 1414 -294 
L 1485 -397 
C 2381 109 3091 806 3539 1651 
L 3539 141 
C 3539 45 3507 13 3405 13 
C 3290 13 2739 58 2739 58 
L 2739 -45 
C 2982 -83 3123 -134 3206 -205 
C 3283 -269 3315 -378 3334 -499 
C 3866 -442 3923 -243 3923 90 
L 3923 4352 
C 4038 4378 4134 4416 4173 4461 
L 3674 4838 
L 3482 4595 
L 2899 4595 
C 3040 4762 3174 4960 3258 5120 
C 3398 5133 3462 5203 3482 5280 
L 2848 5363 
C 2829 5133 2784 4826 2733 4595 
L 2618 4595 
L 2163 4800 
z
M 3539 1965 
L 2541 1965 
L 2541 2714 
L 3539 2714 
L 3539 1965 
z
M 5811 4026 
L 5587 3699 
L 5536 3699 
L 5536 5050 
C 5696 5069 5760 5126 5773 5216 
L 5139 5293 
L 5139 3699 
L 4019 3699 
L 4070 3507 
L 5139 3507 
L 5139 134 
C 5139 38 5107 13 4998 13 
C 4890 13 4346 51 4346 51 
L 4346 -45 
C 4589 -83 4730 -134 4813 -205 
C 4890 -275 4922 -384 4934 -512 
C 5472 -454 5536 -243 5536 96 
L 5536 3507 
L 6048 3507 
C 6138 3507 6195 3539 6214 3610 
C 6061 3789 5811 4026 5811 4026 
z
M 3539 2899 
L 2541 2899 
L 2541 3571 
L 3539 3571 
L 3539 2899 
z
M 3539 3750 
L 2541 3750 
L 2541 4410 
L 3539 4410 
L 3539 3750 
z
" transform="scale(0.015625)"/>
     </defs>
     <use xlink:href="#SourceHanSerifCN-Regular-81f4"/>
     <use xlink:href="#SourceHanSerifCN-Regular-8c22" x="99.999985"/>
    </g>
   </g>
  </g>
 </g>
 <defs>
  <clipPath id="p6f8ec191c9">
   <rect x="0" y="-0" width="460.8" height="16.128"/>
  </clipPath>
 </defs>
</svg>
